<mxfile host="Electron" agent="Mozilla/5.0 (X11; Linux x86_64) AppleWebKit/537.36 (KHTML, like Gecko) draw.io/24.7.8 Chrome/128.0.6613.36 Electron/32.0.1 Safari/537.36" version="24.7.8">
  <diagram name="Страница — 1" id="fOMC7xHu2SzvGz_D-_M9">
    <mxGraphModel dx="2025" dy="593" grid="1" gridSize="10" guides="1" tooltips="1" connect="1" arrows="1" fold="1" page="1" pageScale="1" pageWidth="827" pageHeight="1169" math="0" shadow="0">
      <root>
        <mxCell id="0" />
        <mxCell id="1" parent="0" />
        <mxCell id="44LzGFRztVOM8FdAQFzs-3" style="edgeStyle=orthogonalEdgeStyle;rounded=0;orthogonalLoop=1;jettySize=auto;html=1;" edge="1" parent="1" source="44LzGFRztVOM8FdAQFzs-1" target="44LzGFRztVOM8FdAQFzs-2">
          <mxGeometry relative="1" as="geometry" />
        </mxCell>
        <mxCell id="44LzGFRztVOM8FdAQFzs-11" style="edgeStyle=orthogonalEdgeStyle;rounded=0;orthogonalLoop=1;jettySize=auto;html=1;" edge="1" parent="1" source="44LzGFRztVOM8FdAQFzs-1" target="44LzGFRztVOM8FdAQFzs-10">
          <mxGeometry relative="1" as="geometry" />
        </mxCell>
        <mxCell id="44LzGFRztVOM8FdAQFzs-14" style="edgeStyle=orthogonalEdgeStyle;rounded=0;orthogonalLoop=1;jettySize=auto;html=1;" edge="1" parent="1" source="44LzGFRztVOM8FdAQFzs-1" target="44LzGFRztVOM8FdAQFzs-13">
          <mxGeometry relative="1" as="geometry" />
        </mxCell>
        <mxCell id="44LzGFRztVOM8FdAQFzs-22" style="edgeStyle=orthogonalEdgeStyle;rounded=0;orthogonalLoop=1;jettySize=auto;html=1;" edge="1" parent="1" source="44LzGFRztVOM8FdAQFzs-1" target="44LzGFRztVOM8FdAQFzs-21">
          <mxGeometry relative="1" as="geometry" />
        </mxCell>
        <mxCell id="44LzGFRztVOM8FdAQFzs-30" style="edgeStyle=orthogonalEdgeStyle;rounded=0;orthogonalLoop=1;jettySize=auto;html=1;" edge="1" parent="1" source="44LzGFRztVOM8FdAQFzs-1" target="44LzGFRztVOM8FdAQFzs-29">
          <mxGeometry relative="1" as="geometry" />
        </mxCell>
        <mxCell id="44LzGFRztVOM8FdAQFzs-46" style="edgeStyle=orthogonalEdgeStyle;rounded=0;orthogonalLoop=1;jettySize=auto;html=1;" edge="1" parent="1" source="44LzGFRztVOM8FdAQFzs-1" target="44LzGFRztVOM8FdAQFzs-45">
          <mxGeometry relative="1" as="geometry" />
        </mxCell>
        <mxCell id="44LzGFRztVOM8FdAQFzs-57" style="edgeStyle=orthogonalEdgeStyle;rounded=0;orthogonalLoop=1;jettySize=auto;html=1;" edge="1" parent="1" source="44LzGFRztVOM8FdAQFzs-1" target="44LzGFRztVOM8FdAQFzs-56">
          <mxGeometry relative="1" as="geometry" />
        </mxCell>
        <mxCell id="44LzGFRztVOM8FdAQFzs-1" value="/" style="rounded=0;whiteSpace=wrap;html=1;" vertex="1" parent="1">
          <mxGeometry x="354" y="70" width="120" height="60" as="geometry" />
        </mxCell>
        <mxCell id="44LzGFRztVOM8FdAQFzs-5" style="edgeStyle=orthogonalEdgeStyle;rounded=0;orthogonalLoop=1;jettySize=auto;html=1;" edge="1" parent="1" source="44LzGFRztVOM8FdAQFzs-2" target="44LzGFRztVOM8FdAQFzs-4">
          <mxGeometry relative="1" as="geometry">
            <Array as="points">
              <mxPoint x="280" y="300" />
            </Array>
          </mxGeometry>
        </mxCell>
        <mxCell id="44LzGFRztVOM8FdAQFzs-7" style="edgeStyle=orthogonalEdgeStyle;rounded=0;orthogonalLoop=1;jettySize=auto;html=1;" edge="1" parent="1" source="44LzGFRztVOM8FdAQFzs-2" target="44LzGFRztVOM8FdAQFzs-6">
          <mxGeometry relative="1" as="geometry">
            <Array as="points">
              <mxPoint x="280" y="350" />
            </Array>
          </mxGeometry>
        </mxCell>
        <mxCell id="44LzGFRztVOM8FdAQFzs-9" style="edgeStyle=orthogonalEdgeStyle;rounded=0;orthogonalLoop=1;jettySize=auto;html=1;" edge="1" parent="1" source="44LzGFRztVOM8FdAQFzs-2" target="44LzGFRztVOM8FdAQFzs-8">
          <mxGeometry relative="1" as="geometry">
            <Array as="points">
              <mxPoint x="280" y="400" />
            </Array>
          </mxGeometry>
        </mxCell>
        <mxCell id="44LzGFRztVOM8FdAQFzs-37" style="edgeStyle=orthogonalEdgeStyle;rounded=0;orthogonalLoop=1;jettySize=auto;html=1;" edge="1" parent="1" source="44LzGFRztVOM8FdAQFzs-2" target="44LzGFRztVOM8FdAQFzs-33">
          <mxGeometry relative="1" as="geometry">
            <Array as="points">
              <mxPoint x="280" y="450" />
            </Array>
          </mxGeometry>
        </mxCell>
        <mxCell id="44LzGFRztVOM8FdAQFzs-38" style="edgeStyle=orthogonalEdgeStyle;rounded=0;orthogonalLoop=1;jettySize=auto;html=1;" edge="1" parent="1" source="44LzGFRztVOM8FdAQFzs-2" target="44LzGFRztVOM8FdAQFzs-35">
          <mxGeometry relative="1" as="geometry">
            <Array as="points">
              <mxPoint x="280" y="500" />
            </Array>
          </mxGeometry>
        </mxCell>
        <mxCell id="44LzGFRztVOM8FdAQFzs-2" value="Catalogs" style="rounded=0;whiteSpace=wrap;html=1;" vertex="1" parent="1">
          <mxGeometry x="220" y="180" width="120" height="60" as="geometry" />
        </mxCell>
        <mxCell id="44LzGFRztVOM8FdAQFzs-4" value="Номенклатура.xml" style="whiteSpace=wrap;html=1;shape=mxgraph.basic.document" vertex="1" parent="1">
          <mxGeometry x="-30" y="280" width="240" height="40" as="geometry" />
        </mxCell>
        <mxCell id="44LzGFRztVOM8FdAQFzs-6" value="Номенклатура_МодульОбъекта.super" style="whiteSpace=wrap;html=1;shape=mxgraph.basic.document" vertex="1" parent="1">
          <mxGeometry x="-30" y="330" width="240" height="40" as="geometry" />
        </mxCell>
        <mxCell id="44LzGFRztVOM8FdAQFzs-8" value="Номенклатура_МодульМенеджера.super" style="whiteSpace=wrap;html=1;shape=mxgraph.basic.document" vertex="1" parent="1">
          <mxGeometry x="-30" y="380" width="240" height="40" as="geometry" />
        </mxCell>
        <mxCell id="44LzGFRztVOM8FdAQFzs-10" value="project.xml" style="whiteSpace=wrap;html=1;shape=mxgraph.basic.document" vertex="1" parent="1">
          <mxGeometry x="374" y="190" width="80" height="40" as="geometry" />
        </mxCell>
        <mxCell id="44LzGFRztVOM8FdAQFzs-16" style="edgeStyle=orthogonalEdgeStyle;rounded=0;orthogonalLoop=1;jettySize=auto;html=1;" edge="1" parent="1" source="44LzGFRztVOM8FdAQFzs-13" target="44LzGFRztVOM8FdAQFzs-15">
          <mxGeometry relative="1" as="geometry">
            <Array as="points">
              <mxPoint x="570" y="310" />
            </Array>
          </mxGeometry>
        </mxCell>
        <mxCell id="44LzGFRztVOM8FdAQFzs-40" style="edgeStyle=orthogonalEdgeStyle;rounded=0;orthogonalLoop=1;jettySize=auto;html=1;" edge="1" parent="1" source="44LzGFRztVOM8FdAQFzs-13" target="44LzGFRztVOM8FdAQFzs-39">
          <mxGeometry relative="1" as="geometry">
            <Array as="points">
              <mxPoint x="570" y="510" />
            </Array>
          </mxGeometry>
        </mxCell>
        <mxCell id="44LzGFRztVOM8FdAQFzs-13" value="Lib" style="rounded=0;whiteSpace=wrap;html=1;" vertex="1" parent="1">
          <mxGeometry x="510" y="180" width="120" height="60" as="geometry" />
        </mxCell>
        <mxCell id="44LzGFRztVOM8FdAQFzs-18" style="edgeStyle=orthogonalEdgeStyle;rounded=0;orthogonalLoop=1;jettySize=auto;html=1;" edge="1" parent="1" source="44LzGFRztVOM8FdAQFzs-15" target="44LzGFRztVOM8FdAQFzs-17">
          <mxGeometry relative="1" as="geometry">
            <Array as="points">
              <mxPoint x="480" y="380" />
            </Array>
          </mxGeometry>
        </mxCell>
        <mxCell id="44LzGFRztVOM8FdAQFzs-20" style="edgeStyle=orthogonalEdgeStyle;rounded=0;orthogonalLoop=1;jettySize=auto;html=1;" edge="1" parent="1" source="44LzGFRztVOM8FdAQFzs-15" target="44LzGFRztVOM8FdAQFzs-19">
          <mxGeometry relative="1" as="geometry">
            <Array as="points">
              <mxPoint x="480" y="430" />
            </Array>
          </mxGeometry>
        </mxCell>
        <mxCell id="44LzGFRztVOM8FdAQFzs-15" value="Underscore" style="rounded=0;whiteSpace=wrap;html=1;" vertex="1" parent="1">
          <mxGeometry x="410" y="280" width="120" height="60" as="geometry" />
        </mxCell>
        <mxCell id="44LzGFRztVOM8FdAQFzs-17" value="package.xml" style="whiteSpace=wrap;html=1;shape=mxgraph.basic.document" vertex="1" parent="1">
          <mxGeometry x="330" y="360" width="80" height="40" as="geometry" />
        </mxCell>
        <mxCell id="44LzGFRztVOM8FdAQFzs-19" value="source.super" style="whiteSpace=wrap;html=1;shape=mxgraph.basic.document" vertex="1" parent="1">
          <mxGeometry x="330" y="410" width="80" height="40" as="geometry" />
        </mxCell>
        <mxCell id="44LzGFRztVOM8FdAQFzs-24" style="edgeStyle=orthogonalEdgeStyle;rounded=0;orthogonalLoop=1;jettySize=auto;html=1;" edge="1" parent="1" source="44LzGFRztVOM8FdAQFzs-21" target="44LzGFRztVOM8FdAQFzs-23">
          <mxGeometry relative="1" as="geometry">
            <Array as="points">
              <mxPoint x="-50" y="210" />
              <mxPoint x="-50" y="300" />
            </Array>
          </mxGeometry>
        </mxCell>
        <mxCell id="44LzGFRztVOM8FdAQFzs-26" style="edgeStyle=orthogonalEdgeStyle;rounded=0;orthogonalLoop=1;jettySize=auto;html=1;" edge="1" parent="1" source="44LzGFRztVOM8FdAQFzs-21" target="44LzGFRztVOM8FdAQFzs-25">
          <mxGeometry relative="1" as="geometry">
            <Array as="points">
              <mxPoint x="-50" y="210" />
              <mxPoint x="-50" y="370" />
            </Array>
          </mxGeometry>
        </mxCell>
        <mxCell id="44LzGFRztVOM8FdAQFzs-21" value="CustomDir" style="rounded=0;whiteSpace=wrap;html=1;" vertex="1" parent="1">
          <mxGeometry x="10" y="180" width="120" height="60" as="geometry" />
        </mxCell>
        <mxCell id="44LzGFRztVOM8FdAQFzs-23" value="Инстр.super" style="whiteSpace=wrap;html=1;shape=mxgraph.basic.document" vertex="1" parent="1">
          <mxGeometry x="-160" y="280" width="90" height="40" as="geometry" />
        </mxCell>
        <mxCell id="44LzGFRztVOM8FdAQFzs-25" value="Строки.super" style="whiteSpace=wrap;html=1;shape=mxgraph.basic.document" vertex="1" parent="1">
          <mxGeometry x="-160" y="350" width="90" height="40" as="geometry" />
        </mxCell>
        <mxCell id="44LzGFRztVOM8FdAQFzs-32" style="edgeStyle=orthogonalEdgeStyle;rounded=0;orthogonalLoop=1;jettySize=auto;html=1;" edge="1" parent="1" source="44LzGFRztVOM8FdAQFzs-29" target="44LzGFRztVOM8FdAQFzs-31">
          <mxGeometry relative="1" as="geometry" />
        </mxCell>
        <mxCell id="44LzGFRztVOM8FdAQFzs-29" value="Styles" style="rounded=0;whiteSpace=wrap;html=1;" vertex="1" parent="1">
          <mxGeometry x="670" y="180" width="120" height="60" as="geometry" />
        </mxCell>
        <mxCell id="44LzGFRztVOM8FdAQFzs-31" value="main.css" style="whiteSpace=wrap;html=1;shape=mxgraph.basic.document" vertex="1" parent="1">
          <mxGeometry x="690" y="280" width="80" height="40" as="geometry" />
        </mxCell>
        <mxCell id="44LzGFRztVOM8FdAQFzs-33" value="Номенклатура.sml" style="whiteSpace=wrap;html=1;shape=mxgraph.basic.document" vertex="1" parent="1">
          <mxGeometry x="-30" y="430" width="240" height="40" as="geometry" />
        </mxCell>
        <mxCell id="44LzGFRztVOM8FdAQFzs-35" value="Номенклатура.sml.super" style="whiteSpace=wrap;html=1;shape=mxgraph.basic.document" vertex="1" parent="1">
          <mxGeometry x="-30" y="480" width="240" height="40" as="geometry" />
        </mxCell>
        <mxCell id="44LzGFRztVOM8FdAQFzs-42" style="edgeStyle=orthogonalEdgeStyle;rounded=0;orthogonalLoop=1;jettySize=auto;html=1;" edge="1" parent="1" source="44LzGFRztVOM8FdAQFzs-39" target="44LzGFRztVOM8FdAQFzs-41">
          <mxGeometry relative="1" as="geometry">
            <Array as="points">
              <mxPoint x="470" y="585" />
            </Array>
          </mxGeometry>
        </mxCell>
        <mxCell id="44LzGFRztVOM8FdAQFzs-44" style="edgeStyle=orthogonalEdgeStyle;rounded=0;orthogonalLoop=1;jettySize=auto;html=1;" edge="1" parent="1" source="44LzGFRztVOM8FdAQFzs-39" target="44LzGFRztVOM8FdAQFzs-43">
          <mxGeometry relative="1" as="geometry">
            <Array as="points">
              <mxPoint x="470" y="640" />
            </Array>
          </mxGeometry>
        </mxCell>
        <mxCell id="44LzGFRztVOM8FdAQFzs-39" value="BeautifulSup" style="rounded=0;whiteSpace=wrap;html=1;" vertex="1" parent="1">
          <mxGeometry x="410" y="480" width="120" height="60" as="geometry" />
        </mxCell>
        <mxCell id="44LzGFRztVOM8FdAQFzs-41" value="package.xml" style="whiteSpace=wrap;html=1;shape=mxgraph.basic.document" vertex="1" parent="1">
          <mxGeometry x="330" y="565" width="80" height="40" as="geometry" />
        </mxCell>
        <mxCell id="44LzGFRztVOM8FdAQFzs-43" value="style.css" style="whiteSpace=wrap;html=1;shape=mxgraph.basic.document" vertex="1" parent="1">
          <mxGeometry x="330" y="620" width="80" height="40" as="geometry" />
        </mxCell>
        <mxCell id="44LzGFRztVOM8FdAQFzs-49" style="edgeStyle=orthogonalEdgeStyle;rounded=0;orthogonalLoop=1;jettySize=auto;html=1;" edge="1" parent="1" source="44LzGFRztVOM8FdAQFzs-45" target="44LzGFRztVOM8FdAQFzs-48">
          <mxGeometry relative="1" as="geometry">
            <Array as="points">
              <mxPoint x="900" y="310" />
            </Array>
          </mxGeometry>
        </mxCell>
        <mxCell id="44LzGFRztVOM8FdAQFzs-45" value="Extensions" style="rounded=0;whiteSpace=wrap;html=1;" vertex="1" parent="1">
          <mxGeometry x="840" y="180" width="120" height="60" as="geometry" />
        </mxCell>
        <mxCell id="44LzGFRztVOM8FdAQFzs-51" style="edgeStyle=orthogonalEdgeStyle;rounded=0;orthogonalLoop=1;jettySize=auto;html=1;" edge="1" parent="1" source="44LzGFRztVOM8FdAQFzs-48" target="44LzGFRztVOM8FdAQFzs-50">
          <mxGeometry relative="1" as="geometry">
            <Array as="points">
              <mxPoint x="1040" y="390" />
            </Array>
          </mxGeometry>
        </mxCell>
        <mxCell id="44LzGFRztVOM8FdAQFzs-53" style="edgeStyle=orthogonalEdgeStyle;rounded=0;orthogonalLoop=1;jettySize=auto;html=1;" edge="1" parent="1" source="44LzGFRztVOM8FdAQFzs-48" target="44LzGFRztVOM8FdAQFzs-52">
          <mxGeometry relative="1" as="geometry">
            <Array as="points">
              <mxPoint x="1040" y="460" />
            </Array>
          </mxGeometry>
        </mxCell>
        <mxCell id="44LzGFRztVOM8FdAQFzs-55" style="edgeStyle=orthogonalEdgeStyle;rounded=0;orthogonalLoop=1;jettySize=auto;html=1;" edge="1" parent="1" source="44LzGFRztVOM8FdAQFzs-48" target="44LzGFRztVOM8FdAQFzs-54">
          <mxGeometry relative="1" as="geometry">
            <Array as="points">
              <mxPoint x="1040" y="540" />
            </Array>
          </mxGeometry>
        </mxCell>
        <mxCell id="44LzGFRztVOM8FdAQFzs-48" value="cleverence" style="rounded=0;whiteSpace=wrap;html=1;" vertex="1" parent="1">
          <mxGeometry x="980" y="280" width="120" height="60" as="geometry" />
        </mxCell>
        <mxCell id="44LzGFRztVOM8FdAQFzs-50" value="extension.xml" style="whiteSpace=wrap;html=1;shape=mxgraph.basic.document" vertex="1" parent="1">
          <mxGeometry x="1120" y="370" width="80" height="40" as="geometry" />
        </mxCell>
        <mxCell id="44LzGFRztVOM8FdAQFzs-52" value="Catalogs" style="rounded=0;whiteSpace=wrap;html=1;" vertex="1" parent="1">
          <mxGeometry x="1121" y="430" width="120" height="60" as="geometry" />
        </mxCell>
        <mxCell id="44LzGFRztVOM8FdAQFzs-54" value="Lib" style="rounded=0;whiteSpace=wrap;html=1;" vertex="1" parent="1">
          <mxGeometry x="1121" y="510" width="120" height="60" as="geometry" />
        </mxCell>
        <mxCell id="44LzGFRztVOM8FdAQFzs-59" style="edgeStyle=orthogonalEdgeStyle;rounded=0;orthogonalLoop=1;jettySize=auto;html=1;" edge="1" parent="1" source="44LzGFRztVOM8FdAQFzs-56" target="44LzGFRztVOM8FdAQFzs-58">
          <mxGeometry relative="1" as="geometry">
            <Array as="points">
              <mxPoint x="-260" y="300" />
            </Array>
          </mxGeometry>
        </mxCell>
        <mxCell id="44LzGFRztVOM8FdAQFzs-56" value="Strings" style="rounded=0;whiteSpace=wrap;html=1;" vertex="1" parent="1">
          <mxGeometry x="-320" y="180" width="120" height="60" as="geometry" />
        </mxCell>
        <mxCell id="44LzGFRztVOM8FdAQFzs-58" value="strings.po" style="whiteSpace=wrap;html=1;shape=mxgraph.basic.document" vertex="1" parent="1">
          <mxGeometry x="-400" y="280" width="95" height="40" as="geometry" />
        </mxCell>
      </root>
    </mxGraphModel>
  </diagram>
</mxfile>
